<?xml version="1.0" encoding="UTF-8" standalone="no"?>
<!-- Created with Inkscape (http://www.inkscape.org/) -->

<svg
   width="86.543259mm"
   height="28.415157mm"
   viewBox="0 0 86.543264 28.415158"
   version="1.1"
   id="svg5"
   inkscape:version="1.3.2 (091e20e, 2023-11-25)"
   sodipodi:docname="acme_entities_1.svg"
   xmlns:inkscape="http://www.inkscape.org/namespaces/inkscape"
   xmlns:sodipodi="http://sodipodi.sourceforge.net/DTD/sodipodi-0.dtd"
   xmlns="http://www.w3.org/2000/svg"
   xmlns:svg="http://www.w3.org/2000/svg">
  <sodipodi:namedview
     id="namedview7"
     pagecolor="#ffffff"
     bordercolor="#666666"
     borderopacity="1.0"
     inkscape:pageshadow="2"
     inkscape:pageopacity="0.0"
     inkscape:pagecheckerboard="0"
     inkscape:document-units="mm"
     showgrid="false"
     inkscape:zoom="2.0067138"
     inkscape:cx="192.60345"
     inkscape:cy="34.882902"
     inkscape:window-width="1536"
     inkscape:window-height="907"
     inkscape:window-x="1679"
     inkscape:window-y="89"
     inkscape:window-maximized="0"
     inkscape:current-layer="layer1"
     fit-margin-top="0"
     fit-margin-left="0"
     fit-margin-right="0"
     fit-margin-bottom="0"
     inkscape:showpageshadow="2"
     inkscape:deskcolor="#d1d1d1"
     showguides="false" />
  <defs
     id="defs2">
    <rect
       x="105.87119"
       y="20.088381"
       width="139.53281"
       height="119.44442"
       id="rect207472" />
    <marker
       style="overflow:visible"
       id="Arrow2Sstart"
       refX="0"
       refY="0"
       orient="auto"
       inkscape:stockid="Arrow2Sstart"
       inkscape:isstock="true">
      <path
         transform="matrix(0.3,0,0,0.3,-0.69,0)"
         d="M 8.7185878,4.0337352 -2.2072895,0.01601326 8.7185884,-4.0017078 c -1.7454984,2.3720609 -1.7354408,5.6174519 -6e-7,8.035443 z"
         style="fill:context-stroke;fill-rule:evenodd;stroke-width:0.625;stroke-linejoin:round"
         id="path44768" />
    </marker>
    <marker
       style="overflow:visible"
       id="TriangleOutM"
       refX="0"
       refY="0"
       orient="auto"
       inkscape:stockid="TriangleOutM"
       inkscape:isstock="true">
      <path
         transform="scale(0.4)"
         style="fill:context-stroke;fill-rule:evenodd;stroke:context-stroke;stroke-width:1pt"
         d="M 5.77,0 -2.88,5 V -5 Z"
         id="path44883" />
    </marker>
    <marker
       style="overflow:visible"
       id="Arrow2Mstart"
       refX="0"
       refY="0"
       orient="auto"
       inkscape:stockid="Arrow2Mstart"
       inkscape:isstock="true">
      <path
         transform="scale(0.6)"
         d="M 8.7185878,4.0337352 -2.2072895,0.01601326 8.7185884,-4.0017078 c -1.7454984,2.3720609 -1.7354408,5.6174519 -6e-7,8.035443 z"
         style="fill:context-stroke;fill-rule:evenodd;stroke-width:0.625;stroke-linejoin:round"
         id="path44762" />
    </marker>
    <marker
       style="overflow:visible"
       id="marker184906"
       refX="0"
       refY="0"
       orient="auto"
       inkscape:stockid="Arrow1Mstart"
       inkscape:isstock="true">
      <path
         transform="matrix(0.4,0,0,0.4,4,0)"
         style="fill:context-stroke;fill-rule:evenodd;stroke:context-stroke;stroke-width:1pt"
         d="M 0,0 5,-5 -12.5,0 5,5 Z"
         id="path184904" />
    </marker>
    <linearGradient
       id="linearGradient89082"
       inkscape:swatch="solid">
      <stop
         style="stop-color:#000000;stop-opacity:1;"
         offset="0"
         id="stop89080" />
    </linearGradient>
    <linearGradient
       id="linearGradient88614"
       inkscape:swatch="solid">
      <stop
         style="stop-color:#000000;stop-opacity:1;"
         offset="0"
         id="stop88612" />
    </linearGradient>
    <linearGradient
       id="linearGradient88146"
       inkscape:swatch="solid">
      <stop
         style="stop-color:#000000;stop-opacity:1;"
         offset="0"
         id="stop88144" />
    </linearGradient>
    <rect
       x="28.694315"
       y="106.74285"
       width="174.46143"
       height="43.61536"
       id="rect80881" />
    <rect
       x="-185.36528"
       y="81.491859"
       width="289.81259"
       height="188.80859"
       id="rect73402" />
    <marker
       style="overflow:visible"
       id="Arrow1Mstart"
       refX="0"
       refY="0"
       orient="auto"
       inkscape:stockid="Arrow1Mstart"
       inkscape:isstock="true">
      <path
         transform="matrix(0.4,0,0,0.4,4,0)"
         style="fill:context-stroke;fill-rule:evenodd;stroke:context-stroke;stroke-width:1pt"
         d="M 0,0 5,-5 -12.5,0 5,5 Z"
         id="path44744" />
    </marker>
    <marker
       style="overflow:visible"
       id="marker46154"
       refX="0"
       refY="0"
       orient="auto"
       inkscape:stockid="Arrow1Mend"
       inkscape:isstock="true">
      <path
         transform="matrix(-0.4,0,0,-0.4,-4,0)"
         style="fill:context-stroke;fill-rule:evenodd;stroke:context-stroke;stroke-width:1pt"
         d="M 0,0 5,-5 -12.5,0 5,5 Z"
         id="path46152" />
    </marker>
    <marker
       style="overflow:visible"
       id="Arrow2Lstart"
       refX="0"
       refY="0"
       orient="auto"
       inkscape:stockid="Arrow2Lstart"
       inkscape:isstock="true">
      <path
         transform="matrix(1.1,0,0,1.1,1.1,0)"
         d="M 8.7185878,4.0337352 -2.2072895,0.01601326 8.7185884,-4.0017078 c -1.7454984,2.3720609 -1.7354408,5.6174519 -6e-7,8.035443 z"
         style="fill:context-stroke;fill-rule:evenodd;stroke-width:0.625;stroke-linejoin:round"
         id="path44756" />
    </marker>
    <marker
       style="overflow:visible"
       id="Arrow1Mend"
       refX="0"
       refY="0"
       orient="auto"
       inkscape:stockid="Arrow1Mend"
       inkscape:isstock="true">
      <path
         transform="matrix(-0.4,0,0,-0.4,-4,0)"
         style="fill:context-stroke;fill-rule:evenodd;stroke:context-stroke;stroke-width:1pt"
         d="M 0,0 5,-5 -12.5,0 5,5 Z"
         id="path44747" />
    </marker>
    <marker
       style="overflow:visible"
       id="marker46128"
       refX="0"
       refY="0"
       orient="auto"
       inkscape:stockid="Arrow2Lend"
       inkscape:isstock="true">
      <path
         transform="matrix(-1.1,0,0,-1.1,-1.1,0)"
         d="M 8.7185878,4.0337352 -2.2072895,0.01601326 8.7185884,-4.0017078 c -1.7454984,2.3720609 -1.7354408,5.6174519 -6e-7,8.035443 z"
         style="fill:context-stroke;fill-rule:evenodd;stroke-width:0.625;stroke-linejoin:round"
         id="path46126" />
    </marker>
    <marker
       style="overflow:visible"
       id="Arrow2Lend"
       refX="0"
       refY="0"
       orient="auto"
       inkscape:stockid="Arrow2Lend"
       inkscape:isstock="true">
      <path
         transform="matrix(-1.1,0,0,-1.1,-1.1,0)"
         d="M 8.7185878,4.0337352 -2.2072895,0.01601326 8.7185884,-4.0017078 c -1.7454984,2.3720609 -1.7354408,5.6174519 -6e-7,8.035443 z"
         style="fill:context-stroke;fill-rule:evenodd;stroke-width:0.625;stroke-linejoin:round"
         id="path44759" />
    </marker>
    <marker
       style="overflow:visible"
       id="Arrow1Lend"
       refX="0"
       refY="0"
       orient="auto"
       inkscape:stockid="Arrow1Lend"
       inkscape:isstock="true">
      <path
         transform="matrix(-0.8,0,0,-0.8,-10,0)"
         style="fill:context-stroke;fill-rule:evenodd;stroke:context-stroke;stroke-width:1pt"
         d="M 0,0 5,-5 -12.5,0 5,5 Z"
         id="path44741" />
    </marker>
    <marker
       style="overflow:visible"
       id="Arrow1Lstart"
       refX="0"
       refY="0"
       orient="auto"
       inkscape:stockid="Arrow1Lstart"
       inkscape:isstock="true">
      <path
         transform="matrix(0.8,0,0,0.8,10,0)"
         style="fill:context-stroke;fill-rule:evenodd;stroke:context-stroke;stroke-width:1pt"
         d="M 0,0 5,-5 -12.5,0 5,5 Z"
         id="path44738" />
    </marker>
    <rect
       x="28.694315"
       y="106.74285"
       width="174.46143"
       height="43.61536"
       id="rect89542" />
    <rect
       x="28.694315"
       y="106.74285"
       width="179.29039"
       height="19.251057"
       id="rect80881-8" />
    <rect
       x="28.694315"
       y="106.74285"
       width="181.31361"
       height="18.315836"
       id="rect115329" />
    <rect
       x="28.694315"
       y="106.74285"
       width="174.46143"
       height="43.61536"
       id="rect80881-8-2" />
    <rect
       x="28.694315"
       y="106.74285"
       width="174.46143"
       height="43.61536"
       id="rect149370" />
    <rect
       x="28.694315"
       y="106.74285"
       width="174.46143"
       height="43.61536"
       id="rect153426" />
    <rect
       x="28.694315"
       y="106.74285"
       width="174.46143"
       height="43.61536"
       id="rect158424" />
    <rect
       x="28.694315"
       y="106.74285"
       width="174.46143"
       height="43.61536"
       id="rect164082" />
    <rect
       x="28.694315"
       y="106.74285"
       width="174.46143"
       height="43.61536"
       id="rect171620" />
    <rect
       x="28.694315"
       y="106.74285"
       width="174.46143"
       height="43.61536"
       id="rect174700" />
    <rect
       x="28.694315"
       y="106.74285"
       width="174.46143"
       height="43.61536"
       id="rect176260" />
    <rect
       x="28.694315"
       y="106.74285"
       width="174.46143"
       height="43.61536"
       id="rect80881-8-2-8" />
    <rect
       x="28.694315"
       y="106.74285"
       width="174.46143"
       height="43.61536"
       id="rect189583" />
    <rect
       x="28.694315"
       y="106.74285"
       width="174.46143"
       height="43.61536"
       id="rect158424-3" />
    <marker
       style="overflow:visible"
       id="Arrow2Lend-3"
       refX="0"
       refY="0"
       orient="auto"
       inkscape:stockid="Arrow2Lend"
       inkscape:isstock="true">
      <path
         transform="matrix(-1.1,0,0,-1.1,-1.1,0)"
         d="M 8.7185878,4.0337352 -2.2072895,0.01601326 8.7185884,-4.0017078 c -1.7454984,2.3720609 -1.7354408,5.6174519 -6e-7,8.035443 z"
         style="fill:context-stroke;fill-rule:evenodd;stroke-width:0.625;stroke-linejoin:round"
         id="path44759-5" />
    </marker>
    <rect
       x="28.694315"
       y="106.74285"
       width="174.46143"
       height="43.61536"
       id="rect153426-1" />
    <rect
       x="28.694315"
       y="106.74285"
       width="174.46143"
       height="43.61536"
       id="rect164082-9" />
    <rect
       x="28.694315"
       y="106.74285"
       width="174.46143"
       height="43.61536"
       id="rect208224" />
    <rect
       x="28.694315"
       y="106.74285"
       width="174.46143"
       height="43.61536"
       id="rect171620-0" />
    <rect
       x="28.694315"
       y="106.74285"
       width="174.46143"
       height="43.61536"
       id="rect171620-5" />
    <rect
       x="28.694315"
       y="106.74285"
       width="174.46143"
       height="43.61536"
       id="rect171620-0-4" />
    <rect
       x="28.694315"
       y="106.74285"
       width="174.46143"
       height="43.61536"
       id="rect171620-5-2" />
    <rect
       x="28.694315"
       y="106.74285"
       width="174.46143"
       height="43.61536"
       id="rect208224-7" />
    <rect
       x="28.694315"
       y="106.74285"
       width="174.46143"
       height="43.61536"
       id="rect171620-5-2-1" />
    <rect
       x="28.694315"
       y="106.74285"
       width="174.46143"
       height="43.61536"
       id="rect171620-0-4-4" />
    <rect
       x="28.694315"
       y="106.74285"
       width="174.46143"
       height="43.61536"
       id="rect208224-7-2" />
    <rect
       x="28.694315"
       y="106.74285"
       width="174.46143"
       height="43.61536"
       id="rect171620-0-6" />
    <rect
       x="28.694315"
       y="106.74285"
       width="174.46143"
       height="43.61536"
       id="rect171620-5-0" />
    <rect
       x="28.694315"
       y="106.74285"
       width="174.46143"
       height="43.61536"
       id="rect237618" />
    <rect
       x="28.694315"
       y="106.74285"
       width="174.46143"
       height="43.61536"
       id="rect237620" />
  </defs>
  <g
     inkscape:label="Layer 1"
     inkscape:groupmode="layer"
     id="layer1"
     transform="translate(-5.9476868,-56.278726)">
    <rect
       style="opacity:0.41165;fill:#e05a2c;fill-opacity:0.75;fill-rule:nonzero;stroke:none;stroke-width:0.181255;stroke-linecap:round;stroke-linejoin:round;stroke-miterlimit:4;stroke-dasharray:none;stroke-dashoffset:0;stroke-opacity:1"
       id="rect194839"
       width="16.001902"
       height="16.180155"
       x="61.387405"
       y="64.411194"
       transform="matrix(1,0,-0.26169358,0.96515101,0,0)" />
    <path
       style="fill:#bcc4a4;fill-opacity:1;stroke:#000000;stroke-width:0.2;stroke-linecap:round;stroke-linejoin:round;stroke-miterlimit:4;stroke-dasharray:none;stroke-opacity:1"
       d="M 63.710239,78.371994 76.233516,59.39469 85.260488,74.030499 Z"
       id="path45560" />
    <text
       xml:space="preserve"
       transform="scale(0.26458333)"
       id="text73400"
       style="font-style:normal;font-variant:normal;font-weight:normal;font-stretch:normal;font-size:13.3333px;line-height:1.25;font-family:sans-serif;-inkscape-font-specification:'sans-serif, Normal';font-variant-ligatures:normal;font-variant-caps:normal;font-variant-numeric:normal;font-variant-east-asian:normal;white-space:pre;shape-inside:url(#rect73402);display:inline;fill:#000000;fill-opacity:1;stroke:none" />
    <text
       xml:space="preserve"
       transform="matrix(0.19250922,0,0,0.19250922,65.262348,61.340117)"
       id="text164080"
       style="font-size:13.3333px;line-height:1.25;font-family:sans-serif;-inkscape-font-specification:'sans-serif, Normal';white-space:pre;shape-inside:url(#rect164082);display:inline"><tspan
         x="28.693359"
         y="118.53903"
         id="tspan1">\textsc{Triangle}</tspan></text>
    <text
       xml:space="preserve"
       transform="matrix(0.19250922,0,0,0.19250922,38.941282,61.158164)"
       id="text164080-0"
       style="font-size:13.3333px;line-height:1.25;font-family:sans-serif;-inkscape-font-specification:'sans-serif, Normal';white-space:pre;shape-inside:url(#rect164082-9);display:inline"><tspan
         x="28.693359"
         y="118.53903"
         id="tspan2">\textsc{Plane}</tspan></text>
    <text
       xml:space="preserve"
       transform="matrix(0.19250922,0,0,0.19250922,70.629316,34.743135)"
       id="text171618"
       style="font-size:13.3333px;line-height:1.25;font-family:sans-serif;-inkscape-font-specification:'sans-serif, Normal';white-space:pre;shape-inside:url(#rect171620);display:inline"><tspan
         x="28.693359"
         y="118.53903"
         id="tspan3">$\boldsymbol{p}_{1}$
</tspan></text>
    <text
       xml:space="preserve"
       transform="matrix(0.19250922,0,0,0.19250922,55.474448,57.959864)"
       id="text174698"
       style="font-size:13.3333px;line-height:1.25;font-family:sans-serif;-inkscape-font-specification:'sans-serif, Normal';white-space:pre;shape-inside:url(#rect174700);display:inline"><tspan
         x="28.693359"
         y="118.53903"
         id="tspan4">$\boldsymbol{p}_{2}$
</tspan></text>
    <path
       style="opacity:0.41165;fill:none;fill-opacity:1;fill-rule:nonzero;stroke:none;stroke-width:0.755906;stroke-linecap:round;stroke-linejoin:round;stroke-miterlimit:4;stroke-dasharray:none;stroke-dashoffset:0;stroke-opacity:1"
       id="path191411"
       sodipodi:type="arc"
       sodipodi:cx="133.99124"
       sodipodi:cy="64.076187"
       sodipodi:rx="0.1392844"
       sodipodi:ry="4.8338938"
       sodipodi:start="0"
       sodipodi:end="6.2822777"
       sodipodi:open="true"
       sodipodi:arc-type="arc"
       d="m 134.13053,64.076187 a 0.1392844,4.8338938 0 0 1 -0.13926,4.833894 0.1392844,4.8338938 0 0 1 -0.13931,-4.8317 0.1392844,4.8338938 0 0 1 0.13919,-4.836087 0.1392844,4.8338938 0 0 1 0.13938,4.829506" />
    <path
       style="fill:#286d30;fill-opacity:0.25;stroke:#000000;stroke-width:0.265;stroke-linecap:round;stroke-linejoin:miter;stroke-miterlimit:4;stroke-dasharray:none;stroke-opacity:1"
       d="m 56.299066,77.782818 4.18437,-15.616286"
       id="path194466" />
    <path
       style="fill:#286d30;fill-opacity:0.25;stroke:#000000;stroke-width:0.2;stroke-linecap:round;stroke-linejoin:miter;stroke-miterlimit:4;stroke-dasharray:none;stroke-opacity:1"
       d="m 56.299066,77.782818 4.18437,-15.616286"
       id="path194468" />
    <path
       style="fill:#286d30;fill-opacity:0.25;stroke:#000000;stroke-width:0.2;stroke-linecap:round;stroke-linejoin:miter;stroke-miterlimit:4;stroke-dasharray:none;stroke-opacity:1"
       d="M 40.29716,77.782818 44.48153,62.166532"
       id="path194550" />
    <path
       style="fill:#286d30;fill-opacity:0.25;stroke:#000000;stroke-width:0.2;stroke-linecap:round;stroke-linejoin:miter;stroke-miterlimit:4;stroke-dasharray:none;stroke-opacity:1"
       d="M 44.481528,62.166532 H 60.483436"
       id="path194585" />
    <path
       style="fill:#286d30;fill-opacity:0.25;stroke:#000000;stroke-width:0.2;stroke-linecap:round;stroke-linejoin:miter;stroke-miterlimit:4;stroke-dasharray:none;stroke-opacity:1"
       d="m 40.297159,77.782818 16.001908,2e-6"
       id="path194587"
       sodipodi:nodetypes="cc" />
    <path
       style="fill:none;stroke:#000000;stroke-width:0.2;stroke-linecap:round;stroke-linejoin:miter;stroke-miterlimit:4;stroke-dasharray:none;stroke-opacity:1;marker-end:url(#Arrow2Lend-3)"
       d="M 50.091236,70.346299 42.822235,58.333898"
       id="path44656-1" />
    <text
       xml:space="preserve"
       transform="matrix(0.19250922,0,0,0.19250922,42.846875,53.500261)"
       id="text158422-5"
       style="font-size:13.3333px;line-height:1.25;font-family:sans-serif;-inkscape-font-specification:'sans-serif, Normal';white-space:pre;shape-inside:url(#rect158424-3);display:inline"><tspan
         x="28.693359"
         y="118.53903"
         id="tspan5">$\boldsymbol{p}$
</tspan></text>
    <path
       style="fill:#000000;fill-opacity:1;stroke:none;stroke-width:1.00157;stroke-linecap:round;stroke-linejoin:round;stroke-miterlimit:4;stroke-dasharray:none;stroke-dashoffset:0;stroke-opacity:1"
       id="path189497-2"
       sodipodi:type="arc"
       sodipodi:cx="48.176006"
       sodipodi:cy="73.776566"
       sodipodi:rx="0.33788151"
       sodipodi:ry="0.33788151"
       sodipodi:start="0"
       sodipodi:end="6.2812892"
       sodipodi:arc-type="slice"
       d="m 48.513888,73.776566 a 0.33788151,0.33788151 0 0 1 -0.337722,0.337881 0.33788151,0.33788151 0 0 1 -0.338041,-0.337561 0.33788151,0.33788151 0 0 1 0.337401,-0.338202 0.33788151,0.33788151 0 0 1 0.338361,0.337241 l -0.337881,6.41e-4 z" />
    <text
       xml:space="preserve"
       transform="matrix(0.19250922,0,0,0.19250922,39.553664,37.694354)"
       id="text153424-0"
       style="font-size:13.3333px;line-height:1.25;font-family:sans-serif;-inkscape-font-specification:'sans-serif, Normal';white-space:pre;shape-inside:url(#rect153426-1);display:inline"><tspan
         x="28.693359"
         y="118.53903"
         id="tspan6">$\vec{\boldsymbol{n}}$
</tspan></text>
    <text
       xml:space="preserve"
       transform="matrix(0.26458333,0,0,0.26458333,1.2828475,49.641537)"
       id="text207470"
       style="font-size:13.3333px;line-height:1.25;font-family:sans-serif;-inkscape-font-specification:'sans-serif, Normal';white-space:pre;shape-inside:url(#rect207472);display:inline" />
    <text
       xml:space="preserve"
       transform="matrix(0.19250922,0,0,0.19250922,8.8427314,61.158162)"
       id="text208222"
       style="font-size:13.3333px;line-height:1.25;font-family:sans-serif;-inkscape-font-specification:'sans-serif, Normal';white-space:pre;shape-inside:url(#rect208224);display:inline"><tspan
         x="28.693359"
         y="118.53903"
         id="tspan7">\textsc{Segment}</tspan></text>
    <path
       style="fill:none;stroke:#000000;stroke-width:0.2;stroke-linecap:butt;stroke-linejoin:miter;stroke-miterlimit:4;stroke-dasharray:none;stroke-opacity:1"
       d="m 13.772085,77.18023 13.646751,0.14365"
       id="path210724" />
    <path
       style="fill:#000000;fill-opacity:1;stroke:none;stroke-width:1.00157;stroke-linecap:round;stroke-linejoin:round;stroke-miterlimit:4;stroke-dasharray:none;stroke-dashoffset:0;stroke-opacity:1"
       id="path211035"
       sodipodi:type="arc"
       sodipodi:cx="27.418833"
       sodipodi:cy="77.323875"
       sodipodi:rx="0.33788151"
       sodipodi:ry="0.33788151"
       sodipodi:start="0"
       sodipodi:end="6.2812892"
       sodipodi:arc-type="slice"
       d="m 27.756714,77.323875 a 0.33788151,0.33788151 0 0 1 -0.337721,0.337882 0.33788151,0.33788151 0 0 1 -0.338042,-0.337561 0.33788151,0.33788151 0 0 1 0.337401,-0.338202 0.33788151,0.33788151 0 0 1 0.338362,0.337241 l -0.337881,6.4e-4 z" />
    <path
       style="fill:#000000;fill-opacity:1;stroke:none;stroke-width:1.00157;stroke-linecap:round;stroke-linejoin:round;stroke-miterlimit:4;stroke-dasharray:none;stroke-dashoffset:0;stroke-opacity:1"
       id="path211037"
       sodipodi:type="arc"
       sodipodi:cx="13.772086"
       sodipodi:cy="77.180229"
       sodipodi:rx="0.33788151"
       sodipodi:ry="0.33788151"
       sodipodi:start="0"
       sodipodi:end="6.2812892"
       sodipodi:arc-type="slice"
       d="m 14.109968,77.180229 a 0.33788151,0.33788151 0 0 1 -0.337722,0.337882 0.33788151,0.33788151 0 0 1 -0.338041,-0.337561 0.33788151,0.33788151 0 0 1 0.337401,-0.338202 0.33788151,0.33788151 0 0 1 0.338361,0.337241 l -0.337881,6.4e-4 z" />
    <text
       xml:space="preserve"
       transform="matrix(0.19250922,0,0,0.19250922,5.5989688,57.371081)"
       id="text171618-3"
       style="font-size:13.3333px;line-height:1.25;font-family:sans-serif;-inkscape-font-specification:'sans-serif, Normal';white-space:pre;shape-inside:url(#rect171620-0);display:inline"><tspan
         x="28.693359"
         y="118.53903"
         id="tspan8">$\boldsymbol{p}_{1}$
</tspan></text>
    <text
       xml:space="preserve"
       transform="matrix(0.19250922,0,0,0.19250922,22.562194,57.371081)"
       id="text171618-8"
       style="font-size:13.3333px;line-height:1.25;font-family:sans-serif;-inkscape-font-specification:'sans-serif, Normal';white-space:pre;shape-inside:url(#rect171620-5);display:inline"><tspan
         x="28.693359"
         y="118.53903"
         id="tspan9">$\boldsymbol{p}_{2}$
</tspan></text>
    <text
       xml:space="preserve"
       transform="matrix(0.19250922,0,0,0.19250922,12.209128,50.977741)"
       id="text208222-3"
       style="font-size:13.3333px;line-height:1.25;font-family:sans-serif;-inkscape-font-specification:'sans-serif, Normal';white-space:pre;shape-inside:url(#rect208224-7);display:inline"><tspan
         x="28.693359"
         y="118.53903"
         id="tspan10">\textsc{Ray}</tspan></text>
    <text
       xml:space="preserve"
       transform="matrix(0.19250922,0,0,0.19250922,11.945932,41.139964)"
       id="text208222-3-0"
       style="font-size:13.3333px;line-height:1.25;font-family:sans-serif;-inkscape-font-specification:'sans-serif, Normal';white-space:pre;shape-inside:url(#rect208224-7-2);display:inline"><tspan
         x="28.693359"
         y="118.53903"
         id="tspan11">\textsc{Line}</tspan></text>
    <path
       style="fill:none;stroke:#000000;stroke-width:0.2;stroke-linecap:butt;stroke-linejoin:miter;stroke-miterlimit:4;stroke-dasharray:none;stroke-opacity:1;marker-end:url(#marker46128)"
       d="m 13.617671,67.169468 13.64675,0.14365"
       id="path210724-9" />
    <path
       style="fill:#000000;fill-opacity:1;stroke:none;stroke-width:1.00157;stroke-linecap:round;stroke-linejoin:round;stroke-miterlimit:4;stroke-dasharray:none;stroke-dashoffset:0;stroke-opacity:1"
       id="path211037-8"
       sodipodi:type="arc"
       sodipodi:cx="13.617673"
       sodipodi:cy="67.169472"
       sodipodi:rx="0.33788151"
       sodipodi:ry="0.33788151"
       sodipodi:start="0"
       sodipodi:end="6.2812892"
       sodipodi:arc-type="slice"
       d="m 13.955554,67.169472 a 0.33788151,0.33788151 0 0 1 -0.337721,0.337881 0.33788151,0.33788151 0 0 1 -0.338041,-0.337561 0.33788151,0.33788151 0 0 1 0.3374,-0.338201 0.33788151,0.33788151 0 0 1 0.338362,0.33724 l -0.337881,6.41e-4 z" />
    <text
       xml:space="preserve"
       transform="matrix(0.19250922,0,0,0.19250922,6.6451475,47.555895)"
       id="text171618-3-9"
       style="font-size:13.3333px;line-height:1.25;font-family:sans-serif;-inkscape-font-specification:'sans-serif, Normal';white-space:pre;shape-inside:url(#rect171620-0-6);display:inline"><tspan
         x="28.693359"
         y="118.53903"
         id="tspan12">$\boldsymbol{o}$
</tspan></text>
    <text
       xml:space="preserve"
       transform="matrix(0.19250922,0,0,0.19250922,22.032413,48.4022)"
       id="text171618-8-2"
       style="font-size:13.3333px;line-height:1.25;font-family:sans-serif;-inkscape-font-specification:'sans-serif, Normal';white-space:pre;shape-inside:url(#rect171620-5-0);display:inline"><tspan
         x="28.693359"
         y="118.53903"
         id="tspan13">$\vec{\boldsymbol{d}}$</tspan></text>
    <path
       style="fill:none;stroke:#000000;stroke-width:0.15;stroke-linecap:round;stroke-linejoin:miter;stroke-miterlimit:4;stroke-dasharray:none;stroke-dashoffset:0;stroke-opacity:1"
       d="m 27.264421,67.313118 3.823151,-0.05029"
       id="path237463" />
    <path
       style="fill:none;stroke:#000000;stroke-width:0.15;stroke-linecap:round;stroke-linejoin:miter;stroke-miterlimit:4;stroke-dasharray:0.45, 0.45;stroke-dashoffset:0;stroke-opacity:1"
       d="m 31.087572,67.262828 4.250751,10e-7"
       id="path237465" />
    <path
       style="fill:none;stroke:#000000;stroke-width:0.2;stroke-linecap:butt;stroke-linejoin:miter;stroke-miterlimit:4;stroke-dasharray:none;stroke-opacity:1;marker-end:url(#marker46128)"
       d="m 13.923738,57.044954 13.646751,0.14365"
       id="path237602" />
    <path
       style="fill:#000000;fill-opacity:1;stroke:none;stroke-width:1.00157;stroke-linecap:round;stroke-linejoin:round;stroke-miterlimit:4;stroke-dasharray:none;stroke-dashoffset:0;stroke-opacity:1"
       id="path237604"
       sodipodi:type="arc"
       sodipodi:cx="13.92374"
       sodipodi:cy="57.044956"
       sodipodi:rx="0.33788151"
       sodipodi:ry="0.33788151"
       sodipodi:start="0"
       sodipodi:end="6.2812892"
       sodipodi:arc-type="slice"
       d="m 14.261622,57.044956 a 0.33788151,0.33788151 0 0 1 -0.337721,0.337882 0.33788151,0.33788151 0 0 1 -0.338042,-0.337561 0.33788151,0.33788151 0 0 1 0.337401,-0.338202 0.33788151,0.33788151 0 0 1 0.338361,0.337241 l -0.337881,6.4e-4 z" />
    <text
       xml:space="preserve"
       transform="matrix(0.19250922,0,0,0.19250922,7.016664,37.365931)"
       id="text237608"
       style="font-size:13.3333px;line-height:1.25;font-family:sans-serif;-inkscape-font-specification:'sans-serif, Normal';white-space:pre;shape-inside:url(#rect237618);display:inline"><tspan
         x="28.693359"
         y="118.53903"
         id="tspan14">$\boldsymbol{o}$
</tspan></text>
    <text
       xml:space="preserve"
       transform="matrix(0.19250922,0,0,0.19250922,21.962345,38.400304)"
       id="text237612"
       style="font-size:13.3333px;line-height:1.25;font-family:sans-serif;-inkscape-font-specification:'sans-serif, Normal';white-space:pre;shape-inside:url(#rect237620);display:inline"><tspan
         x="28.693359"
         y="118.53903"
         id="tspan15">$\vec{\boldsymbol{d}}$</tspan></text>
    <path
       style="fill:none;stroke:#000000;stroke-width:0.15;stroke-linecap:round;stroke-linejoin:miter;stroke-miterlimit:4;stroke-dasharray:none;stroke-dashoffset:0;stroke-opacity:1"
       d="m 27.570489,57.188604 3.823151,-0.05029"
       id="path237614" />
    <path
       style="fill:none;stroke:#000000;stroke-width:0.15;stroke-linecap:round;stroke-linejoin:miter;stroke-miterlimit:4;stroke-dasharray:0.45, 0.45;stroke-dashoffset:0;stroke-opacity:1"
       d="m 31.39364,57.138314 4.250751,10e-7"
       id="path237616" />
    <path
       style="fill:none;stroke:#000000;stroke-width:0.15;stroke-linecap:round;stroke-linejoin:miter;stroke-miterlimit:4;stroke-dasharray:none;stroke-dashoffset:0;stroke-opacity:1"
       d="m 10.100588,57.095244 3.82315,-0.05029"
       id="path237622" />
    <path
       style="fill:none;stroke:#000000;stroke-width:0.15;stroke-linecap:round;stroke-linejoin:miter;stroke-miterlimit:4;stroke-dasharray:0.45, 0.45;stroke-dashoffset:0;stroke-opacity:1"
       d="m 6.0226868,57.095243 4.2507512,10e-7"
       id="path237624" />
    <path
       style="fill:none;stroke:#000000;stroke-width:0.1;stroke-linecap:round;stroke-linejoin:miter;stroke-miterlimit:4;stroke-dasharray:0.4, 0.4;stroke-dashoffset:0;stroke-opacity:1"
       d="m 53.322156,68.434064 -3.23092,1.912235"
       id="path257034-6" />
    <path
       style="fill:none;stroke:#000000;stroke-width:0.1;stroke-linecap:round;stroke-linejoin:miter;stroke-miterlimit:4;stroke-dasharray:none;stroke-dashoffset:0;stroke-opacity:1"
       d="M 50.439066,68.602171 49.389037,69.22386"
       id="path257045-9"
       sodipodi:nodetypes="cc" />
    <path
       style="fill:none;stroke:#000000;stroke-width:0.1;stroke-linecap:round;stroke-linejoin:miter;stroke-miterlimit:4;stroke-dasharray:none;stroke-opacity:1"
       d="m 50.439066,68.602171 0.65145,1.128346"
       id="path257080-1" />
    <path
       style="fill:#000000;fill-opacity:1;stroke:none;stroke-width:1.00157;stroke-linecap:round;stroke-linejoin:round;stroke-miterlimit:4;stroke-dasharray:none;stroke-dashoffset:0;stroke-opacity:1"
       id="path189497-8"
       sodipodi:type="arc"
       sodipodi:cx="85.26049"
       sodipodi:cy="74.030502"
       sodipodi:rx="0.33788151"
       sodipodi:ry="0.33788151"
       sodipodi:start="0"
       sodipodi:end="6.2812892"
       sodipodi:arc-type="slice"
       d="m 85.598372,74.030502 a 0.33788151,0.33788151 0 0 1 -0.337721,0.337882 0.33788151,0.33788151 0 0 1 -0.338042,-0.337561 0.33788151,0.33788151 0 0 1 0.337401,-0.338202 0.33788151,0.33788151 0 0 1 0.338361,0.337241 l -0.337881,6.4e-4 z" />
    <path
       style="fill:#000000;fill-opacity:1;stroke:none;stroke-width:1.00157;stroke-linecap:round;stroke-linejoin:round;stroke-miterlimit:4;stroke-dasharray:none;stroke-dashoffset:0;stroke-opacity:1"
       id="path189497-7"
       sodipodi:type="arc"
       sodipodi:cx="76.233513"
       sodipodi:cy="59.394691"
       sodipodi:rx="0.33788151"
       sodipodi:ry="0.33788151"
       sodipodi:start="0"
       sodipodi:end="6.2812892"
       sodipodi:arc-type="slice"
       d="m 76.571394,59.394691 a 0.33788151,0.33788151 0 0 1 -0.337721,0.337882 0.33788151,0.33788151 0 0 1 -0.338041,-0.337561 0.33788151,0.33788151 0 0 1 0.3374,-0.338202 0.33788151,0.33788151 0 0 1 0.338362,0.337241 l -0.337881,6.4e-4 z" />
    <path
       style="fill:#000000;fill-opacity:1;stroke:none;stroke-width:1.00157;stroke-linecap:round;stroke-linejoin:round;stroke-miterlimit:4;stroke-dasharray:none;stroke-dashoffset:0;stroke-opacity:1"
       id="path189497-3"
       sodipodi:type="arc"
       sodipodi:cx="63.710239"
       sodipodi:cy="78.371994"
       sodipodi:rx="0.33788151"
       sodipodi:ry="0.33788151"
       sodipodi:start="0"
       sodipodi:end="6.2812892"
       sodipodi:arc-type="slice"
       d="m 64.048121,78.371994 a 0.33788151,0.33788151 0 0 1 -0.337721,0.337881 0.33788151,0.33788151 0 0 1 -0.338042,-0.337561 0.33788151,0.33788151 0 0 1 0.337401,-0.338201 0.33788151,0.33788151 0 0 1 0.338361,0.33724 l -0.337881,6.41e-4 z" />
  </g>
</svg>
